<?xml version="1.0" encoding="utf-8"?>
<svg version="1.1" xmlns="http://www.w3.org/2000/svg" viewBox="-1.39558 -0.745 2.79115 0.86"><defs><marker id="secArrow-blue" markerWidth="3" markerHeight="4" refX="3" refY="2" orient="auto"><path d="M3,2 L0,4 L0,0 L3,2" fill="blue" style="stroke:none;fill-opacity:0.5"/></marker><marker id="secArrow-seagreen" markerWidth="3" markerHeight="4" refX="3" refY="2" orient="auto"><path d="M3,2 L0,4 L0,0 L3,2" fill="seagreen" style="stroke:none;fill-opacity:0.5"/></marker></defs><g><g><g><polygon points="0,-0 -0.0825,-0 -0.165,-0 -0.2475,-0 -0.33,-0 -0.4125,-0 -0.495,-0 -0.5775,-0 -0.66,-0 -0.66,-0.094 0,-0.094 " style="fill:#eee;stroke:darkgrey;stroke-width:0.005"/><polyline points="0,-0 -0.0825,-0 -0.165,-0 -0.2475,-0 -0.33,-0 -0.4125,-0 -0.495,-0 -0.5775,-0 -0.66,-0 " style="fill:#eee;stroke:black;stroke-width:0.010"/><polygon points="-0.02,-0.0188 -0.02,-0.0752 -0.04,-0.047 " style="fill:#ccc;stroke-width:0"/><text x="-0.35350000000000004" y="-0.0235" font-size="0.050000000000000003" style="fill:darkgrey">0</text></g><g><polygon points="-0.66,-0 -0.71633,-0 -0.772661,-3.66468e-08 -0.828991,-4.17485e-05 -0.885319,-0.000445667 -0.941624,-0.00204461 -0.997778,-0.00636481 -1.0533,-0.0156938 -1.10694,-0.0326832 -1.07097,-0.119528 -0.66,-0.094 " style="fill:#eee;stroke:darkgrey;stroke-width:0.005"/><polyline points="-0.66,-0 -0.71633,-0 -0.772661,-3.66468e-08 -0.828991,-4.17485e-05 -0.885319,-0.000445667 -0.941624,-0.00204461 -0.997778,-0.00636481 -1.0533,-0.0156938 -1.10694,-0.0326832 " style="fill:#eee;stroke:black;stroke-width:0.010"/><polygon points="-0.68,-0.0188 -0.68,-0.0752 -0.7,-0.047 " style="fill:#ccc;stroke-width:0"/><text x="-0.90814308912402486" y="-0.02394080329175903" font-size="0.050000000000000003" style="fill:darkgrey">1</text></g><g><polygon points="-1.10694,-0.0326832 -1.13405,-0.0455047 -1.15977,-0.0609216 -1.18386,-0.0787854 -1.20608,-0.0989241 -1.22621,-0.121144 -1.24408,-0.14523 -1.2595,-0.170952 -1.27232,-0.198061 -1.16748,-0.241486 -1.06351,-0.137523 " style="fill:#eee;stroke:darkgrey;stroke-width:0.005"/><polyline points="-1.10694,-0.0326832 -1.13405,-0.0455047 -1.15977,-0.0609216 -1.18386,-0.0787854 -1.20608,-0.0989241 -1.22621,-0.121144 -1.24408,-0.14523 -1.2595,-0.170952 -1.27232,-0.198061 " style="fill:#eee;stroke:black;stroke-width:0.010"/><polygon points="-1.11673,-0.0613047 -1.09068,-0.124208 -1.12218,-0.10041 " style="fill:#ccc;stroke-width:0"/><text x="-1.1943249630240922" y="-0.11067503697590787" font-size="0.050000000000000003" style="fill:darkgrey">2</text></g><g><polygon points="-1.27232,-0.198061 -1.28242,-0.226296 -1.28971,-0.255385 -1.29411,-0.285048 -1.29558,-0.315 -1.29411,-0.344952 -1.28971,-0.374615 -1.28242,-0.403704 -1.27232,-0.431939 -1.16748,-0.388514 -1.16748,-0.241486 " style="fill:#eee;stroke:darkgrey;stroke-width:0.005"/><polyline points="-1.27232,-0.198061 -1.28242,-0.226296 -1.28971,-0.255385 -1.29411,-0.285048 -1.29558,-0.315 -1.29411,-0.344952 -1.28971,-0.374615 -1.28242,-0.403704 -1.27232,-0.431939 " style="fill:#eee;stroke:black;stroke-width:0.010"/><polygon points="-1.259,-0.225223 -1.1961,-0.251279 -1.2352,-0.256729 " style="fill:#ccc;stroke-width:0"/><text x="-1.2672081809864393" y="-0.28663069024999999" font-size="0.050000000000000003" style="fill:darkgrey">3</text></g><g><polygon points="-1.27232,-0.431939 -1.2595,-0.459048 -1.24408,-0.48477 -1.22621,-0.508856 -1.20608,-0.531076 -1.18386,-0.551215 -1.15977,-0.569078 -1.13405,-0.584495 -1.10694,-0.597317 -1.06351,-0.492477 -1.16748,-0.388514 " style="fill:#eee;stroke:darkgrey;stroke-width:0.005"/><polyline points="-1.27232,-0.431939 -1.2595,-0.459048 -1.24408,-0.48477 -1.22621,-0.508856 -1.20608,-0.531076 -1.18386,-0.551215 -1.15977,-0.569078 -1.13405,-0.584495 -1.10694,-0.597317 " style="fill:#eee;stroke:black;stroke-width:0.010"/><polygon points="-1.2437,-0.441732 -1.18079,-0.415676 -1.20459,-0.447182 " style="fill:#ccc;stroke-width:0"/><text x="-1.1943249630240924" y="-0.46258634352409211" font-size="0.050000000000000003" style="fill:darkgrey">4</text></g><g><polygon points="-1.10694,-0.597317 -1.0533,-0.614306 -0.997778,-0.623635 -0.941624,-0.627955 -0.885319,-0.629554 -0.828991,-0.629958 -0.772661,-0.63 -0.71633,-0.63 -0.66,-0.63 -0.66,-0.536 -1.07097,-0.510472 " style="fill:#eee;stroke:darkgrey;stroke-width:0.005"/><polyline points="-1.10694,-0.597317 -1.0533,-0.614306 -0.997778,-0.623635 -0.941624,-0.627955 -0.885319,-0.629554 -0.828991,-0.629958 -0.772661,-0.63 -0.71633,-0.63 -0.66,-0.63 " style="fill:#eee;stroke:black;stroke-width:0.010"/><polygon points="-1.08127,-0.587602 -1.05968,-0.535495 -1.052,-0.569202 " style="fill:#ccc;stroke-width:0"/><text x="-0.90814308912402497" y="-0.55905919670824111" font-size="0.050000000000000003" style="fill:darkgrey">5</text></g><g><polygon points="-0.66,-0.63 -0.5775,-0.63 -0.495,-0.63 -0.4125,-0.63 -0.33,-0.63 -0.2475,-0.63 -0.165,-0.63 -0.0825,-0.63 0,-0.63 4.17444e-17,-0.536 -0.66,-0.536 " style="fill:#eee;stroke:darkgrey;stroke-width:0.005"/><polyline points="-0.66,-0.63 -0.5775,-0.63 -0.495,-0.63 -0.4125,-0.63 -0.33,-0.63 -0.2475,-0.63 -0.165,-0.63 -0.0825,-0.63 0,-0.63 " style="fill:#eee;stroke:black;stroke-width:0.010"/><polygon points="-0.64,-0.6112 -0.64,-0.5548 -0.62,-0.583 " style="fill:#ccc;stroke-width:0"/><text x="-0.35350000000000009" y="-0.55950000000000033" font-size="0.050000000000000003" style="fill:darkgrey">6</text></g><g><polygon points="0,-0.63 0.0825,-0.63 0.165,-0.63 0.2475,-0.63 0.33,-0.63 0.4125,-0.63 0.495,-0.63 0.5775,-0.63 0.66,-0.63 0.66,-0.536 4.17444e-17,-0.536 " style="fill:#eee;stroke:darkgrey;stroke-width:0.005"/><polyline points="0,-0.63 0.0825,-0.63 0.165,-0.63 0.2475,-0.63 0.33,-0.63 0.4125,-0.63 0.495,-0.63 0.5775,-0.63 0.66,-0.63 " style="fill:#eee;stroke:black;stroke-width:0.010"/><polygon points="0.02,-0.6112 0.02,-0.5548 0.04,-0.583 " style="fill:#ccc;stroke-width:0"/><text x="0.30650000000000005" y="-0.55950000000000066" font-size="0.050000000000000003" style="fill:darkgrey">7</text></g><g><polygon points="0.66,-0.63 0.71633,-0.63 0.772661,-0.63 0.828991,-0.629958 0.885319,-0.629554 0.941624,-0.627955 0.997778,-0.623635 1.0533,-0.614306 1.10694,-0.597317 1.07097,-0.510472 0.66,-0.536 " style="fill:#eee;stroke:darkgrey;stroke-width:0.005"/><polyline points="0.66,-0.63 0.71633,-0.63 0.772661,-0.63 0.828991,-0.629958 0.885319,-0.629554 0.941624,-0.627955 0.997778,-0.623635 1.0533,-0.614306 1.10694,-0.597317 " style="fill:#eee;stroke:black;stroke-width:0.010"/><polygon points="0.68,-0.6112 0.68,-0.5548 0.7,-0.583 " style="fill:#ccc;stroke-width:0"/><text x="0.86114308912402504" y="-0.55905919670824189" font-size="0.050000000000000003" style="fill:darkgrey">8</text></g><g><polygon points="1.10694,-0.597317 1.13405,-0.584495 1.15977,-0.569078 1.18386,-0.551215 1.20608,-0.531076 1.22621,-0.508856 1.24408,-0.48477 1.2595,-0.459048 1.27232,-0.431939 1.16748,-0.388514 1.06351,-0.492477 " style="fill:#eee;stroke:darkgrey;stroke-width:0.005"/><polyline points="1.10694,-0.597317 1.13405,-0.584495 1.15977,-0.569078 1.18386,-0.551215 1.20608,-0.531076 1.22621,-0.508856 1.24408,-0.48477 1.2595,-0.459048 1.27232,-0.431939 " style="fill:#eee;stroke:black;stroke-width:0.010"/><polygon points="1.11673,-0.568695 1.09068,-0.505792 1.12218,-0.52959 " style="fill:#ccc;stroke-width:0"/><text x="1.1375863435240927" y="-0.46258634352409322" font-size="0.050000000000000003" style="fill:darkgrey">9</text></g><g><polygon points="1.27232,-0.431939 1.28242,-0.403704 1.28971,-0.374615 1.29411,-0.344952 1.29558,-0.315 1.29411,-0.285048 1.28971,-0.255385 1.28242,-0.226296 1.27232,-0.198061 1.16748,-0.241486 1.16748,-0.388514 " style="fill:#eee;stroke:darkgrey;stroke-width:0.005"/><polyline points="1.27232,-0.431939 1.28242,-0.403704 1.28971,-0.374615 1.29411,-0.344952 1.29558,-0.315 1.29411,-0.285048 1.28971,-0.255385 1.28242,-0.226296 1.27232,-0.198061 " style="fill:#eee;stroke:black;stroke-width:0.010"/><polygon points="1.259,-0.404777 1.1961,-0.378721 1.2352,-0.373271 " style="fill:#ccc;stroke-width:0"/><text x="1.2104695614864396" y="-0.28663069025000099" font-size="0.050000000000000003" style="fill:darkgrey">10</text></g><g><polygon points="1.27232,-0.198061 1.2595,-0.170952 1.24408,-0.14523 1.22621,-0.121144 1.20608,-0.0989241 1.18386,-0.0787854 1.15977,-0.0609216 1.13405,-0.0455047 1.10694,-0.0326832 1.06351,-0.137523 1.16748,-0.241486 " style="fill:#eee;stroke:darkgrey;stroke-width:0.005"/><polyline points="1.27232,-0.198061 1.2595,-0.170952 1.24408,-0.14523 1.22621,-0.121144 1.20608,-0.0989241 1.18386,-0.0787854 1.15977,-0.0609216 1.13405,-0.0455047 1.10694,-0.0326832 " style="fill:#eee;stroke:black;stroke-width:0.010"/><polygon points="1.2437,-0.188268 1.18079,-0.214324 1.20459,-0.182818 " style="fill:#ccc;stroke-width:0"/><text x="1.1375863435240929" y="-0.11067503697590871" font-size="0.050000000000000003" style="fill:darkgrey">11</text></g><g><polygon points="1.10694,-0.0326832 1.0533,-0.0156938 0.997778,-0.00636481 0.941624,-0.00204461 0.885319,-0.000445667 0.828991,-4.17485e-05 0.772661,-3.66468e-08 0.71633,-4.30211e-16 0.66,-3.88578e-16 0.66,-0.094 1.07097,-0.119528 " style="fill:#eee;stroke:darkgrey;stroke-width:0.005"/><polyline points="1.10694,-0.0326832 1.0533,-0.0156938 0.997778,-0.00636481 0.941624,-0.00204461 0.885319,-0.000445667 0.828991,-4.17485e-05 0.772661,-3.66468e-08 0.71633,-4.30211e-16 0.66,-3.88578e-16 " style="fill:#eee;stroke:black;stroke-width:0.010"/><polygon points="1.08127,-0.0423985 1.05968,-0.0945053 1.052,-0.0607982 " style="fill:#ccc;stroke-width:0"/><text x="0.86114308912402548" y="-0.023940803291759662" font-size="0.050000000000000003" style="fill:darkgrey">12</text></g><g><polygon points="0.66,-3.88578e-16 0.5775,-3.10724e-16 0.495,-2.32869e-16 0.4125,-1.55015e-16 0.33,-7.71605e-17 0.2475,6.93889e-19 0.165,7.85483e-17 0.0825,1.56403e-16 2.22045e-16,2.34257e-16 1.33338e-16,-0.094 0.66,-0.094 " style="fill:#eee;stroke:darkgrey;stroke-width:0.005"/><polyline points="0.66,-3.88578e-16 0.5775,-3.10724e-16 0.495,-2.32869e-16 0.4125,-1.55015e-16 0.33,-7.71605e-17 0.2475,6.93889e-19 0.165,7.85483e-17 0.0825,1.56403e-16 2.22045e-16,2.34257e-16 " style="fill:#eee;stroke:black;stroke-width:0.010"/><polygon points="0.64,-0.0188 0.64,-0.0752 0.62,-0.047 " style="fill:#ccc;stroke-width:0"/><text x="0.30650000000000033" y="-0.023500000000000097" font-size="0.050000000000000003" style="fill:darkgrey">13</text></g></g><g><g><polyline points="0,0.015 -0.0253846,0.015 -0.0507692,0.015 -0.0761538,0.015 -0.101538,0.015 -0.126923,0.015 -0.152308,0.015 -0.177692,0.015 -0.203077,0.015 -0.228462,0.015 -0.253846,0.015 -0.279231,0.015 -0.304615,0.015 -0.33,0.015 -0.355385,0.015 -0.380769,0.015 -0.406154,0.015 -0.431538,0.015 -0.456923,0.015 -0.482308,0.015 -0.507692,0.015 -0.533077,0.015 -0.558462,0.015 -0.583846,0.015 -0.609231,0.015 -0.634615,0.015 -0.66,0.015 " stroke-width="0.0050000000000000001" style="stroke:pink;fill:none"/><rect x="-0.0049999999999998821" y="0.01000000000000012" width="0.01" height="0.01" style="fill:red;stroke-width:0"/><rect x="-0.66500000000000004" y="0.0099999999999999985" width="0.01" height="0.01" style="fill:red;stroke-width:0"/></g><g><polyline points="-0.66,0.015 -0.68625,0.015 -0.7125,0.015 -0.73875,0.015 -0.765,0.015 " stroke-width="0.0050000000000000001" style="stroke:pink;fill:none"/><rect x="-0.66500000000000004" y="0.0099999999999999985" width="0.01" height="0.01" style="fill:red;stroke-width:0"/><rect x="-0.77000000000000002" y="0.0099999999999999985" width="0.01" height="0.01" style="fill:red;stroke-width:0"/></g><g><polyline points="-0.765,0.015 -0.791592,0.014998 -0.818197,0.0149785 -0.844829,0.0149062 -0.8715,0.0147224 -0.898227,0.0143393 -0.925025,0.0136353 -0.951905,0.0124499 -0.978868,0.0105791 -1.0059,0.0077732 -1.03293,0.00374117 -1.05988,-0.00183544 -1.08654,-0.00927084 -1.11268,-0.018825 " stroke-width="0.0050000000000000001" style="stroke:pink;fill:none"/><rect x="-0.77000000000000002" y="0.0099999999999999985" width="0.01" height="0.01" style="fill:red;stroke-width:0"/><rect x="-1.1176796944940082" y="-0.023825017724777367" width="0.01" height="0.01" style="fill:red;stroke-width:0"/></g><g><polyline points="-1.11268,-0.018825 -1.13803,-0.0306443 -1.16225,-0.0446277 -1.18516,-0.0606688 -1.20658,-0.0786455 -1.22635,-0.098421 -1.24433,-0.119845 -1.26037,-0.142754 -1.27436,-0.166974 -1.28617,-0.19232 " stroke-width="0.0050000000000000001" style="stroke:pink;fill:none"/><rect x="-1.1176796944940082" y="-0.023825017724777367" width="0.01" height="0.01" style="fill:red;stroke-width:0"/><rect x="-1.2911749822752228" y="-0.19732030550599172" width="0.01" height="0.01" style="fill:red;stroke-width:0"/></g><g><polyline points="-1.28617,-0.19232 -1.29574,-0.2186 -1.30298,-0.245614 -1.30783,-0.273156 -1.31027,-0.301017 -1.31027,-0.328983 -1.30783,-0.356844 -1.30298,-0.384386 -1.29574,-0.4114 -1.28617,-0.43768 " stroke-width="0.0050000000000000001" style="stroke:pink;fill:none"/><rect x="-1.2911749822752228" y="-0.19732030550599172" width="0.01" height="0.01" style="fill:red;stroke-width:0"/><rect x="-1.2911749822752228" y="-0.44267969449400824" width="0.01" height="0.01" style="fill:red;stroke-width:0"/></g><g><polyline points="-1.28617,-0.43768 -1.27436,-0.463026 -1.26037,-0.487246 -1.24433,-0.510155 -1.22635,-0.531579 -1.20658,-0.551355 -1.18516,-0.569331 -1.16225,-0.585372 -1.13803,-0.599356 -1.11268,-0.611175 " stroke-width="0.0050000000000000001" style="stroke:pink;fill:none"/><rect x="-1.2911749822752228" y="-0.44267969449400824" width="0.01" height="0.01" style="fill:red;stroke-width:0"/><rect x="-1.1176796944940084" y="-0.61617498227522272" width="0.01" height="0.01" style="fill:red;stroke-width:0"/></g><g><polyline points="-1.11268,-0.611175 -1.08654,-0.620729 -1.05988,-0.628165 -1.03293,-0.633741 -1.0059,-0.637773 -0.978868,-0.640579 -0.951905,-0.64245 -0.925025,-0.643635 -0.898227,-0.644339 -0.8715,-0.644722 -0.844829,-0.644906 -0.818197,-0.644978 -0.791592,-0.644998 -0.765,-0.645 " stroke-width="0.0050000000000000001" style="stroke:pink;fill:none"/><rect x="-1.1176796944940084" y="-0.61617498227522272" width="0.01" height="0.01" style="fill:red;stroke-width:0"/><rect x="-0.77000000000000024" y="-0.65000000000000024" width="0.01" height="0.01" style="fill:red;stroke-width:0"/></g><g><polyline points="-0.765,-0.645 -0.73875,-0.645 -0.7125,-0.645 -0.68625,-0.645 -0.66,-0.645 " stroke-width="0.0050000000000000001" style="stroke:pink;fill:none"/><rect x="-0.77000000000000024" y="-0.65000000000000024" width="0.01" height="0.01" style="fill:red;stroke-width:0"/><rect x="-0.66500000000000015" y="-0.65000000000000024" width="0.01" height="0.01" style="fill:red;stroke-width:0"/></g><g><polyline points="-0.66,-0.645 -0.634615,-0.645 -0.609231,-0.645 -0.583846,-0.645 -0.558462,-0.645 -0.533077,-0.645 -0.507692,-0.645 -0.482308,-0.645 -0.456923,-0.645 -0.431538,-0.645 -0.406154,-0.645 -0.380769,-0.645 -0.355385,-0.645 -0.33,-0.645 -0.304615,-0.645 -0.279231,-0.645 -0.253846,-0.645 -0.228462,-0.645 -0.203077,-0.645 -0.177692,-0.645 -0.152308,-0.645 -0.126923,-0.645 -0.101538,-0.645 -0.0761538,-0.645 -0.0507692,-0.645 -0.0253846,-0.645 -6.66134e-18,-0.645 " stroke-width="0.0050000000000000001" style="stroke:pink;fill:none"/><rect x="-0.66500000000000015" y="-0.65000000000000024" width="0.01" height="0.01" style="fill:red;stroke-width:0"/><rect x="-0.005000000000000007" y="-0.65000000000000058" width="0.01" height="0.01" style="fill:red;stroke-width:0"/></g><g><polyline points="-6.66134e-18,-0.645 0.0253846,-0.645 0.0507692,-0.645 0.0761538,-0.645 0.101538,-0.645 0.126923,-0.645 0.152308,-0.645 0.177692,-0.645 0.203077,-0.645 0.228462,-0.645 0.253846,-0.645 0.279231,-0.645 0.304615,-0.645 0.33,-0.645 0.355385,-0.645 0.380769,-0.645 0.406154,-0.645 0.431538,-0.645 0.456923,-0.645 0.482308,-0.645 0.507692,-0.645 0.533077,-0.645 0.558462,-0.645 0.583846,-0.645 0.609231,-0.645 0.634615,-0.645 0.66,-0.645 " stroke-width="0.0050000000000000001" style="stroke:pink;fill:none"/><rect x="-0.005000000000000007" y="-0.65000000000000058" width="0.01" height="0.01" style="fill:red;stroke-width:0"/><rect x="0.65500000000000014" y="-0.65000000000000091" width="0.01" height="0.01" style="fill:red;stroke-width:0"/></g><g><polyline points="0.66,-0.645 0.68625,-0.645 0.7125,-0.645 0.73875,-0.645 0.765,-0.645 " stroke-width="0.0050000000000000001" style="stroke:pink;fill:none"/><rect x="0.65500000000000014" y="-0.65000000000000091" width="0.01" height="0.01" style="fill:red;stroke-width:0"/><rect x="0.76000000000000012" y="-0.65000000000000091" width="0.01" height="0.01" style="fill:red;stroke-width:0"/></g><g><polyline points="0.765,-0.645 0.791592,-0.644998 0.818197,-0.644978 0.844829,-0.644906 0.8715,-0.644722 0.898227,-0.644339 0.925025,-0.643635 0.951905,-0.64245 0.978868,-0.640579 1.0059,-0.637773 1.03293,-0.633741 1.05988,-0.628165 1.08654,-0.620729 1.11268,-0.611175 " stroke-width="0.0050000000000000001" style="stroke:pink;fill:none"/><rect x="0.76000000000000012" y="-0.65000000000000091" width="0.01" height="0.01" style="fill:red;stroke-width:0"/><rect x="1.1076796944940086" y="-0.61617498227522371" width="0.01" height="0.01" style="fill:red;stroke-width:0"/></g><g><polyline points="1.11268,-0.611175 1.13803,-0.599356 1.16225,-0.585372 1.18516,-0.569331 1.20658,-0.551355 1.22635,-0.531579 1.24433,-0.510155 1.26037,-0.487246 1.27436,-0.463026 1.28617,-0.43768 " stroke-width="0.0050000000000000001" style="stroke:pink;fill:none"/><rect x="1.1076796944940086" y="-0.61617498227522371" width="0.01" height="0.01" style="fill:red;stroke-width:0"/><rect x="1.2811749822752232" y="-0.44267969449400935" width="0.01" height="0.01" style="fill:red;stroke-width:0"/></g><g><polyline points="1.28617,-0.43768 1.29574,-0.4114 1.30298,-0.384386 1.30783,-0.356844 1.31027,-0.328983 1.31027,-0.301017 1.30783,-0.273156 1.30298,-0.245614 1.29574,-0.2186 1.28617,-0.19232 " stroke-width="0.0050000000000000001" style="stroke:pink;fill:none"/><rect x="1.2811749822752232" y="-0.44267969449400935" width="0.01" height="0.01" style="fill:red;stroke-width:0"/><rect x="1.2811749822752234" y="-0.19732030550599278" width="0.01" height="0.01" style="fill:red;stroke-width:0"/></g><g><polyline points="1.28617,-0.19232 1.27436,-0.166974 1.26037,-0.142754 1.24433,-0.119845 1.22635,-0.098421 1.20658,-0.0786455 1.18516,-0.0606688 1.16225,-0.0446277 1.13803,-0.0306443 1.11268,-0.018825 " stroke-width="0.0050000000000000001" style="stroke:pink;fill:none"/><rect x="1.2811749822752234" y="-0.19732030550599278" width="0.01" height="0.01" style="fill:red;stroke-width:0"/><rect x="1.107679694494009" y="-0.02382501772477821" width="0.01" height="0.01" style="fill:red;stroke-width:0"/></g><g><polyline points="1.11268,-0.018825 1.08654,-0.00927084 1.05988,-0.00183544 1.03293,0.00374117 1.0059,0.0077732 0.978868,0.0105791 0.951905,0.0124499 0.925025,0.0136353 0.898227,0.0143393 0.8715,0.0147224 0.844829,0.0149062 0.818197,0.0149785 0.791592,0.014998 0.765,0.015 " stroke-width="0.0050000000000000001" style="stroke:pink;fill:none"/><rect x="1.107679694494009" y="-0.02382501772477821" width="0.01" height="0.01" style="fill:red;stroke-width:0"/><rect x="0.76000000000000056" y="0.0099999999999994919" width="0.01" height="0.01" style="fill:red;stroke-width:0"/></g><g><polyline points="0.765,0.015 0.73875,0.015 0.7125,0.015 0.68625,0.015 0.66,0.015 " stroke-width="0.0050000000000000001" style="stroke:pink;fill:none"/><rect x="0.76000000000000056" y="0.0099999999999994919" width="0.01" height="0.01" style="fill:red;stroke-width:0"/><rect x="0.65500000000000058" y="0.0099999999999996168" width="0.01" height="0.01" style="fill:red;stroke-width:0"/></g><g><polyline points="2.362e-16,0.015 0.0253846,0.015 0.0507692,0.015 0.0761538,0.015 0.101538,0.015 0.126923,0.015 0.152308,0.015 0.177692,0.015 0.203077,0.015 0.228462,0.015 0.253846,0.015 0.279231,0.015 0.304615,0.015 0.33,0.015 0.355385,0.015 0.380769,0.015 0.406154,0.015 0.431538,0.015 0.456923,0.015 0.482308,0.015 0.507692,0.015 0.533077,0.015 0.558462,0.015 0.583846,0.015 0.609231,0.015 0.634615,0.015 0.66,0.015 " stroke-width="0.0050000000000000001" style="stroke:pink;fill:none"/><rect x="-0.0049999999999998821" y="0.01000000000000012" width="0.01" height="0.01" style="fill:red;stroke-width:0"/><rect x="0.65500000000000058" y="0.0099999999999996168" width="0.01" height="0.01" style="fill:red;stroke-width:0"/></g></g><polyline points="0.33,0.015 0.304615,0.015 0.279231,0.015 0.253846,0.015 0.228462,0.015 0.203077,0.015 0.177692,0.015 0.152308,0.015 0.126923,0.015 0.101538,0.015 0.0761538,0.015 0.0507692,0.015 0.0253846,0.015 2.362e-16,0.015 -0.0253846,0.015 -0.0507692,0.015 -0.0761538,0.015 -0.101538,0.015 -0.126923,0.015 -0.152308,0.015 -0.177692,0.015 -0.203077,0.015 -0.228462,0.015 -0.253846,0.015 -0.279231,0.015 -0.304615,0.015 -0.33,0.015 " stroke="blue" style="stroke-opacity:0.5;stroke-width:0.010;fill:none;marker-end:url(#secArrow-blue)"/><polyline points="-0.66,-0.645 -0.634615,-0.645 -0.609231,-0.645 -0.583846,-0.645 -0.558462,-0.645 -0.533077,-0.645 -0.507692,-0.645 -0.482308,-0.645 -0.456923,-0.645 -0.431538,-0.645 -0.406154,-0.645 -0.380769,-0.645 -0.355385,-0.645 -0.33,-0.645 -0.304615,-0.645 -0.279231,-0.645 -0.253846,-0.645 -0.228462,-0.645 -0.203077,-0.645 -0.177692,-0.645 -0.152308,-0.645 -0.126923,-0.645 -0.101538,-0.645 -0.0761538,-0.645 -0.0507692,-0.645 -0.0253846,-0.645 -6.66134e-18,-0.645 0.0253846,-0.645 0.0507692,-0.645 0.0761538,-0.645 0.101538,-0.645 0.126923,-0.645 0.152308,-0.645 0.177692,-0.645 0.203077,-0.645 0.228462,-0.645 0.253846,-0.645 0.279231,-0.645 0.304615,-0.645 0.33,-0.645 0.355385,-0.645 0.380769,-0.645 0.406154,-0.645 0.431538,-0.645 0.456923,-0.645 0.482308,-0.645 0.507692,-0.645 0.533077,-0.645 0.558462,-0.645 0.583846,-0.645 0.609231,-0.645 0.634615,-0.645 0.66,-0.645 " stroke="seagreen" style="stroke-opacity:0.5;stroke-width:0.010;fill:none;marker-end:url(#secArrow-seagreen)"/><g><line x1="0.18000000000000041" y1="0.0015000000000000655" x2="0.18000000000000041" y2="0.028500000000000074" stroke="green" style="stroke-width:0.002"/><polygon points="0.18675,0.0195 0.18675,0.0105 0.171,0.015 " stroke="green" fill="green" style="stroke-width:0.004;fill-opacity:0.2"/></g><g><line x1="-0.17999999999999999" y1="0.0014999999999999996" x2="-0.17999999999999999" y2="0.028499999999999998" stroke="green" style="stroke-width:0.002"/><polygon points="-0.17325,0.0195 -0.17325,0.0105 -0.189,0.015 " stroke="green" fill="green" style="stroke-width:0.004;fill-opacity:0.2"/></g><g><polyline points="-0.0491,0.006 -0.0401,0.006 -0.0401,0.024 -0.0446,0.024 " stroke="lightgrey" fill="none" style="stroke-width:0.004"/></g><g><polyline points="-0.6109,0.024 -0.6199,0.024 -0.6199,0.006 -0.6154,0.006 " stroke="lightgrey" fill="none" style="stroke-width:0.004"/></g><g><polyline points="-0.7091,0.006 -0.7001,0.006 -0.7001,0.024 -0.7046,0.024 " stroke="lightgrey" fill="none" style="stroke-width:0.004"/></g><g><polyline points="-1.06677,0.00583839 -1.07545,0.00343068 -1.07063,-0.0139132 -1.06629,-0.0127094 " stroke="lightgrey" fill="none" style="stroke-width:0.004"/></g><g><polyline points="-1.15367,-0.0497195 -1.14588,-0.045217 -1.15488,-0.0296315 -1.15878,-0.0318827 " stroke="lightgrey" fill="none" style="stroke-width:0.004"/></g><g><polyline points="-1.27087,-0.142325 -1.27537,-0.150118 -1.25978,-0.159123 -1.25753,-0.155227 " stroke="lightgrey" fill="none" style="stroke-width:0.004"/></g><g><polyline points="-1.29331,-0.24315 -1.29099,-0.234456 -1.30838,-0.229803 -1.30954,-0.23415 " stroke="lightgrey" fill="none" style="stroke-width:0.004"/></g><g><polyline points="-1.3107,-0.391503 -1.30838,-0.400197 -1.29099,-0.395544 -1.29215,-0.391197 " stroke="lightgrey" fill="none" style="stroke-width:0.004"/></g><g><polyline points="-1.25528,-0.47867 -1.25978,-0.470877 -1.27537,-0.479882 -1.27312,-0.483779 " stroke="lightgrey" fill="none" style="stroke-width:0.004"/></g><g><polyline points="-1.16267,-0.595866 -1.15488,-0.600369 -1.14588,-0.584783 -1.14977,-0.582532 " stroke="lightgrey" fill="none" style="stroke-width:0.004"/></g><g><polyline points="-1.06196,-0.618494 -1.07063,-0.616087 -1.07545,-0.633431 -1.07111,-0.634635 " stroke="lightgrey" fill="none" style="stroke-width:0.004"/></g><g><polyline points="-0.7091,-0.654 -0.7001,-0.654 -0.7001,-0.636 -0.7046,-0.636 " stroke="lightgrey" fill="none" style="stroke-width:0.004"/></g><g><polyline points="-0.6109,-0.636 -0.6199,-0.636 -0.6199,-0.654 -0.6154,-0.654 " stroke="lightgrey" fill="none" style="stroke-width:0.004"/></g><g><polyline points="-0.0491,-0.654 -0.0401,-0.654 -0.0401,-0.636 -0.0446,-0.636 " stroke="lightgrey" fill="none" style="stroke-width:0.004"/></g><g><polyline points="0.0491,-0.636 0.0401,-0.636 0.0401,-0.654 0.0446,-0.654 " stroke="lightgrey" fill="none" style="stroke-width:0.004"/></g><g><polyline points="0.6109,-0.654 0.6199,-0.654 0.6199,-0.636 0.6154,-0.636 " stroke="lightgrey" fill="none" style="stroke-width:0.004"/></g><g><polyline points="0.7091,-0.636 0.7001,-0.636 0.7001,-0.654 0.7046,-0.654 " stroke="lightgrey" fill="none" style="stroke-width:0.004"/></g><g><polyline points="1.06677,-0.635838 1.07545,-0.633431 1.07063,-0.616087 1.06629,-0.617291 " stroke="lightgrey" fill="none" style="stroke-width:0.004"/></g><g><polyline points="1.15367,-0.58028 1.14588,-0.584783 1.15488,-0.600369 1.15878,-0.598117 " stroke="lightgrey" fill="none" style="stroke-width:0.004"/></g><g><polyline points="1.27087,-0.487675 1.27537,-0.479882 1.25978,-0.470877 1.25753,-0.474773 " stroke="lightgrey" fill="none" style="stroke-width:0.004"/></g><g><polyline points="1.29331,-0.38685 1.29099,-0.395544 1.30838,-0.400197 1.30954,-0.39585 " stroke="lightgrey" fill="none" style="stroke-width:0.004"/></g><g><polyline points="1.3107,-0.238497 1.30838,-0.229803 1.29099,-0.234456 1.29215,-0.238803 " stroke="lightgrey" fill="none" style="stroke-width:0.004"/></g><g><polyline points="1.25528,-0.15133 1.25978,-0.159123 1.27537,-0.150118 1.27312,-0.146221 " stroke="lightgrey" fill="none" style="stroke-width:0.004"/></g><g><polyline points="1.16267,-0.034134 1.15488,-0.0296315 1.14588,-0.045217 1.14977,-0.0474682 " stroke="lightgrey" fill="none" style="stroke-width:0.004"/></g><g><polyline points="1.06196,-0.0115055 1.07063,-0.0139132 1.07545,0.00343068 1.07111,0.00463454 " stroke="lightgrey" fill="none" style="stroke-width:0.004"/></g><g><polyline points="0.7091,0.024 0.7001,0.024 0.7001,0.006 0.7046,0.006 " stroke="lightgrey" fill="none" style="stroke-width:0.004"/></g><g><polyline points="0.0491,0.024 0.0401,0.024 0.0401,0.006 0.0446,0.006 " stroke="lightgrey" fill="none" style="stroke-width:0.004"/></g><g><polyline points="0.6109,0.006 0.6199,0.006 0.6199,0.024 0.6154,0.024 " stroke="lightgrey" fill="none" style="stroke-width:0.004"/></g></g></svg>